<svg xmlns="http://www.w3.org/2000/svg" viewBox="0 0 285.52 44.98"><defs><style>.cls-1{fill:#26358b;}.cls-2{fill:#fff;fill-rule:evenodd;}</style></defs><title>smileroom_logo</title><g id="Layer_2" data-name="Layer 2"><g id="Layer_1-2" data-name="Layer 1"><rect class="cls-1" width="285.52" height="44.98"/><path class="cls-2" d="M143.65,6.08H6.07V38.89H279.45V6.08Zm-1.78,31.13H7.82V7.76H141.87V37.21Zm8.72-25.07h17.23c2.12,0,3.62.4,4.49,1.21s1.43,2.44,1.43,4.66a10.55,10.55,0,0,1-.66,4.1A3.78,3.78,0,0,1,171,24a5.43,5.43,0,0,1,2.14,1.46,4.74,4.74,0,0,1,.52,2.62v4.78h-5.92V29a2.16,2.16,0,0,0-.4-1.32,1.8,1.8,0,0,0-1.54-.71h-9.37v5.91h-5.92l.07-20.69Zm5.92,5.2H166a1.85,1.85,0,0,1,1.38.46,3.35,3.35,0,0,1,.36,1.88,2.33,2.33,0,0,1-.42,1.6,1.86,1.86,0,0,1-1.38.44h-9.51l.07-4.38ZM205,22.51c0,4.89-.57,7.82-1.7,8.77s-4.9,1.55-11,1.55a47.16,47.16,0,0,1-8.83-.51,4.25,4.25,0,0,1-3.34-2.81,28.83,28.83,0,0,1-.53-7c0-4.9.55-7.82,1.66-8.78s4.9-1.58,11-1.58,9.79.52,11,1.55S205,17.61,205,22.51Zm-19.52,0c0-2.59.28-4.1.85-4.52s2.55-.63,6-.63,5.37.21,5.94.63.84,1.93.84,4.52-.28,4.06-.84,4.48-2.56.64-6,.64-5.37-.22-5.93-.64-.85-1.91-.85-4.48Zm49.34,0c0,4.89-.56,7.82-1.69,8.77s-4.9,1.55-11,1.55a47.09,47.09,0,0,1-8.83-.51A4.25,4.25,0,0,1,210,29.51a28.14,28.14,0,0,1-.54-7c0-4.9.56-7.82,1.67-8.78s4.9-1.58,11-1.58,9.79.52,11,1.55,1.72,3.91,1.72,8.81Zm-19.51,0c0-2.59.28-4.1.84-4.52s2.56-.63,6-.63,5.37.21,5.93.63.85,1.93.85,4.52-.28,4.06-.85,4.48-2.55.64-6,.64-5.37-.22-5.94-.64-.84-1.91-.84-4.48ZM239,12.15h10.63l5.52,12.67,5.52-12.67H270.8V32.83h-5.92V16.74l-7.27,16.09h-4.84L245,16.74V32.83H239V12.15ZM17,18q0-3.09,1.6-4.46t5.1-1.37h10.4q7,0,7,5.85H39a3.3,3.3,0,0,0-1.13-2.75,6.76,6.76,0,0,0-4.19-1H23.74c-1.84,0-3.08.31-3.74.92A3.8,3.8,0,0,0,19.14,18a2.7,2.7,0,0,0,.95,2.42c.76.5,2.2.75,4.34.75h9.2q4,0,5.84,1.29a4.7,4.7,0,0,1,1.82,4.11V27c0,2.13-.52,3.64-1.57,4.51s-2.78,1.31-5.2,1.31H23.89A7.51,7.51,0,0,1,19,31.35a5.46,5.46,0,0,1-1.81-4.45h2.14a3.37,3.37,0,0,0,1.1,2.76,6.69,6.69,0,0,0,4.19,1h9.73A5.94,5.94,0,0,0,38,29.79a3.4,3.4,0,0,0,1.18-2.89,3.42,3.42,0,0,0-1-2.85c-.7-.56-2-.83-3.9-.83H23.83q-4,0-5.49-1.32C17.45,21.13,17,19.82,17,18Zm35.76,5.86v9H50.63V18.2h2.14v2.25a4.23,4.23,0,0,1,.89-1.12,5.75,5.75,0,0,1,3.75-1.13h2.92a7.55,7.55,0,0,1,4,.88l1.67,2a4,4,0,0,1,.83-1.44,6.56,6.56,0,0,1,4.7-1.44h3.34a7.09,7.09,0,0,1,4.76,1.51,4.51,4.51,0,0,1,1.66,3.58v9.54H79.14V23.71A3.3,3.3,0,0,0,77.89,21a5.67,5.67,0,0,0-3.56-1h-2.2a6.26,6.26,0,0,0-3.79,1A3.56,3.56,0,0,0,67,24v8.82H64.88V24a3.53,3.53,0,0,0-1.29-3,5.48,5.48,0,0,0-3.46-1H57.82a5.54,5.54,0,0,0-3.89,1.27,3.4,3.4,0,0,0-1.16,2.58Zm38,9V18.17h2.14V32.83Zm0-20.63h2.14v2.14H90.73V12.2Zm11.64,20.63V12.2h2.14V32.83Zm28.38-9H116.32a4,4,0,0,1,1-2.91,3.64,3.64,0,0,1,2.73-1.07h6.71A3.89,3.89,0,0,1,129.71,21a4,4,0,0,1,1,2.91Zm-3.09,9h-7.18q-6.3,0-6.3-5.52V23.51a5,5,0,0,1,1.6-3.71,6.4,6.4,0,0,1,4.64-1.69h6.17a6.79,6.79,0,0,1,4.72,1.54,4.68,4.68,0,0,1,1.58,3.62v2.38H116.32v1.42a4,4,0,0,0,1.16,3.15,4.27,4.27,0,0,0,2.91.89h7a3.72,3.72,0,0,0,2.54-.75,2.46,2.46,0,0,0,.85-1.92v-.3h2.14v.3a4.2,4.2,0,0,1-1.1,2.91A5.28,5.28,0,0,1,127.66,32.89Z"/></g></g></svg>