<svg xmlns="http://www.w3.org/2000/svg" width="278" height="41" viewBox="0 0 278 41">
  <metadata><?xpacket begin="﻿" id="W5M0MpCehiHzreSzNTczkc9d"?>
<x:xmpmeta xmlns:x="adobe:ns:meta/" x:xmptk="Adobe XMP Core 5.6-c142 79.160924, 2017/07/13-01:06:39        ">
   <rdf:RDF xmlns:rdf="http://www.w3.org/1999/02/22-rdf-syntax-ns#">
      <rdf:Description rdf:about=""/>
   </rdf:RDF>
</x:xmpmeta>
                                                                                                    
                                                                                                    
                                                                                                    
                                                                                                    
                                                                                                    
                                                                                                    
                                                                                                    
                                                                                                    
                                                                                                    
                                                                                                    
                                                                                                    
                                                                                                    
                                                                                                    
                                                                                                    
                                                                                                    
                                                                                                    
                                                                                                    
                                                                                                    
                                                                                                    
                                                                                                    
                           
<?xpacket end="w"?></metadata>
<defs>
    <style>
      .cls-1 {
        fill: #fff;
        fill-rule: evenodd;
      }
    </style>
  </defs>
  <path id="Прозрачный_логотип" data-name="Прозрачный логотип" class="cls-1" d="M190.636,29.464a49.31,49.31,0,0,0,8.6.461q8.964,0,10.747-1.41,1.651-1.307,1.651-8t-1.677-8.025q-1.782-1.409-10.721-1.41-8.964,0-10.746,1.436-1.626,1.307-1.625,8a24.106,24.106,0,0,0,.524,6.383A4.062,4.062,0,0,0,190.636,29.464ZM193.454,16.4q0.825-.576,5.8-0.577,4.955,0,5.78.577t0.825,4.115q0,3.512-.825,4.089t-5.806.577q-4.953,0-5.779-.577t-0.826-4.088Q192.628,16.978,193.454,16.4Zm26.224,13.062a49.318,49.318,0,0,0,8.6.461q8.964,0,10.746-1.41,1.652-1.307,1.651-8T239,12.492q-1.782-1.409-10.72-1.41-8.964,0-10.747,1.436-1.624,1.307-1.625,8a24.151,24.151,0,0,0,.524,6.383A4.065,4.065,0,0,0,219.678,29.464ZM222.5,16.4q0.826-.576,5.806-0.577,4.955,0,5.78.577t0.825,4.115q0,3.512-.825,4.089t-5.806.577q-4.954,0-5.78-.577t-0.825-4.088Q221.67,16.978,222.5,16.4ZM250.5,15.265s6.96,13.421,7.6,14.66h4.718l7.077-14.66v14.66h5.766V11.082h-9.829l-5.373,11.545-5.373-11.545H244.735V29.925H250.5V15.265ZM19.617,33.92H150.136V7.079H19.617V33.92ZM123.172,21.433a4.4,4.4,0,0,1,1.561-3.383,6.48,6.48,0,0,1,4.51-1.542h6.013a6.879,6.879,0,0,1,4.595,1.407,4.152,4.152,0,0,1,1.533,3.3v2.164h-16.13v1.3a3.5,3.5,0,0,0,1.127,2.868,4.366,4.366,0,0,0,2.833.812h6.793a3.778,3.778,0,0,0,2.472-.691,2.179,2.179,0,0,0,.823-1.745v-0.27h2.082v0.27a3.694,3.694,0,0,1-1.07,2.652,5.341,5.341,0,0,1-4.018,1.407h-7q-6.124,0-6.129-5.033V21.433Zm-11.5-10.309h2.081V29.93h-2.081V11.124Zm-11.333,0h2.081v1.948h-2.081V11.124Zm0,5.439h2.081V29.93h-2.081V16.563ZM61.3,16.59h2.082v2.057a3.767,3.767,0,0,1,.867-1.028A5.87,5.87,0,0,1,67.9,16.59h2.837a7.8,7.8,0,0,1,3.883.8c0.54,0.609,1.079,1.213,1.624,1.822a3.464,3.464,0,0,1,.809-1.312,6.667,6.667,0,0,1,4.577-1.312h3.242a7.208,7.208,0,0,1,4.635,1.375,4.023,4.023,0,0,1,1.624,3.27v8.7H89.052V21.613a2.931,2.931,0,0,0-1.214-2.507,5.807,5.807,0,0,0-3.469-.892H82.23a6.364,6.364,0,0,0-3.685.907,3.151,3.151,0,0,0-1.287,2.764V29.93H75.176v-8.1a3.132,3.132,0,0,0-1.257-2.7,5.606,5.606,0,0,0-3.368-.919H68.3a5.611,5.611,0,0,0-3.787,1.159,3.013,3.013,0,0,0-1.127,2.35V29.93H61.3V16.59ZM30.122,12.319q1.562-1.249,4.972-1.249H45.211q6.822,0,6.822,5.331H49.952a2.923,2.923,0,0,0-1.1-2.507,6.941,6.941,0,0,0-4.076-.929H35.122q-2.688,0-3.642.843a3.313,3.313,0,0,0-.838,2.58,2.383,2.383,0,0,0,.925,2.2,8.884,8.884,0,0,0,4.22.681h8.961q3.9,0,5.68,1.177a4.169,4.169,0,0,1,1.778,3.748v0.379q0,2.922-1.532,4.113t-5.058,1.191H35.267a7.621,7.621,0,0,1-4.77-1.3,4.833,4.833,0,0,1-1.763-4.059h2.081a2.958,2.958,0,0,0,1.069,2.516,6.829,6.829,0,0,0,4.076.947h9.481a6.091,6.091,0,0,0,3.526-.826,3.017,3.017,0,0,0,1.156-2.638,3.024,3.024,0,0,0-1.026-2.6,6.79,6.79,0,0,0-3.8-.757H35.209q-3.873,0-5.348-1.2a4.368,4.368,0,0,1-1.3-3.581A4.906,4.906,0,0,1,30.122,12.319Zm108.169,6.787a3.928,3.928,0,0,0-2.833-.973h-6.534a3.683,3.683,0,0,0-2.659.973,3.512,3.512,0,0,0-1.011,2.652H139.3A3.512,3.512,0,0,0,138.291,19.106Zm26.029,5.436h9.122a1.788,1.788,0,0,1,1.494.641,1.884,1.884,0,0,1,.393,1.205v3.538H181.1V25.566a4.084,4.084,0,0,0-.511-2.384,5.249,5.249,0,0,0-2.084-1.333,3.627,3.627,0,0,0,2.018-1.7,9.133,9.133,0,0,0,.644-3.738q0-3.032-1.39-4.239-1.282-1.11-4.377-1.107H158.62l-0.066,18.855h5.766V24.541Zm0.067-8.729h9.252a1.844,1.844,0,0,1,1.337.415,2.83,2.83,0,0,1,.353,1.712,2.026,2.026,0,0,1-.407,1.457,1.867,1.867,0,0,1-1.35.4H164.32ZM12,0V40.994H289.992V0H12ZM284.082,35.452H17.914V5.547H284.082v29.9Z" transform="translate(-12)"/>
</svg>
